<svg width="129" height="128" viewBox="0 0 129 128" fill="none" xmlns="http://www.w3.org/2000/svg">
<path fill-rule="evenodd" clip-rule="evenodd" d="M60.3998 2.31084C62.8755 0.880956 65.9262 0.880954 68.4019 2.31084L115.808 29.6904C118.282 31.1196 119.807 33.7603 119.807 36.618V91.382C119.807 94.2397 118.282 96.8804 115.808 98.3096L68.4019 125.689C65.9262 127.119 62.8755 127.119 60.3998 125.689L12.9938 98.3096C10.5192 96.8804 8.99491 94.2397 8.99491 91.382V36.618C8.99491 33.7603 10.5192 31.1196 12.9938 29.6904L60.3998 2.31084Z" fill="url(#paint0_linear_26_4260)"/>
<path fill-rule="evenodd" clip-rule="evenodd" d="M62.5116 57.1095C63.5425 56.5095 64.8138 56.4997 65.8539 57.0838L94.8563 73.3716C95.4293 73.6935 95.4293 74.5187 94.8563 74.8405L65.8539 91.1283C64.8138 91.7124 63.5425 91.7026 62.5116 91.1026L34.5599 74.8341C34.0019 74.5093 34.0019 73.7029 34.5599 73.3781L62.5116 57.1095Z" fill="white"/>
<g opacity="0.900359" filter="url(#filter0_b_26_4260)">
<path fill-rule="evenodd" clip-rule="evenodd" d="M62.5116 56.8036C63.5425 56.2036 64.8138 56.1938 65.8539 56.7779L94.8563 73.0657C95.4293 73.3876 95.4293 74.2128 94.8563 74.5346L65.8539 90.8224C64.8138 91.4065 63.5425 91.3967 62.5116 90.7967L34.5599 74.5282C34.0019 74.2034 34.0019 73.397 34.5599 73.0722L62.5116 56.8036Z" fill="url(#paint1_linear_26_4260)"/>
</g>
<path fill-rule="evenodd" clip-rule="evenodd" d="M62.5116 45.9438C63.5425 45.3437 64.8138 45.3339 65.8539 45.918L94.8563 62.2059C95.4293 62.5277 95.4293 63.3529 94.8563 63.6747L65.8539 79.9626C64.8138 80.5467 63.5425 80.5369 62.5116 79.9368L34.5599 63.6683C34.0019 63.3435 34.0019 62.5371 34.5599 62.2123L62.5116 45.9438Z" fill="white"/>
<g filter="url(#filter1_b_26_4260)">
<path fill-rule="evenodd" clip-rule="evenodd" d="M62.5116 45.5758C63.5425 44.9758 64.8138 44.966 65.8539 45.5501L94.8563 61.8379C95.4293 62.1598 95.4293 62.985 94.8563 63.3068L65.8539 79.5946C64.8138 80.1787 63.5425 80.1689 62.5116 79.5689L34.5599 63.3004C34.0019 62.9756 34.0019 62.1692 34.5599 61.8444L62.5116 45.5758Z" fill="url(#paint2_linear_26_4260)"/>
</g>
<path fill-rule="evenodd" clip-rule="evenodd" d="M62.5116 34.3479C63.5425 33.7479 64.8138 33.7381 65.8539 34.3222L94.8563 50.61C95.4293 50.9319 95.4293 51.7571 94.8563 52.0789L65.8539 68.3667C64.8138 68.9508 63.5425 68.9411 62.5116 68.341L34.5599 52.0725C34.0019 51.7477 34.0019 50.9413 34.5599 50.6165L62.5116 34.3479Z" fill="white"/>
<defs>
<filter id="filter0_b_26_4260" x="6.95854" y="29.1639" width="115.51" height="89.2726" filterUnits="userSpaceOnUse" color-interpolation-filters="sRGB">
<feFlood flood-opacity="0" result="BackgroundImageFix"/>
<feGaussianBlur in="BackgroundImageFix" stdDeviation="13.5914"/>
<feComposite in2="SourceAlpha" operator="in" result="effect1_backgroundBlur_26_4260"/>
<feBlend mode="normal" in="SourceGraphic" in2="effect1_backgroundBlur_26_4260" result="shape"/>
</filter>
<filter id="filter1_b_26_4260" x="6.95854" y="17.9361" width="115.51" height="89.2726" filterUnits="userSpaceOnUse" color-interpolation-filters="sRGB">
<feFlood flood-opacity="0" result="BackgroundImageFix"/>
<feGaussianBlur in="BackgroundImageFix" stdDeviation="13.5914"/>
<feComposite in2="SourceAlpha" operator="in" result="effect1_backgroundBlur_26_4260"/>
<feBlend mode="normal" in="SourceGraphic" in2="effect1_backgroundBlur_26_4260" result="shape"/>
</filter>
<linearGradient id="paint0_linear_26_4260" x1="71.4476" y1="-53.0018" x2="-34.5587" y2="60.8621" gradientUnits="userSpaceOnUse">
<stop stop-color="#32C5FF"/>
<stop offset="0.533966" stop-color="#B620E0"/>
<stop offset="1" stop-color="#FFAA12"/>
</linearGradient>
<linearGradient id="paint1_linear_26_4260" x1="70.1953" y1="38.951" x2="31.943" y2="59.4569" gradientUnits="userSpaceOnUse">
<stop stop-color="white" stop-opacity="0.475466"/>
<stop offset="1" stop-color="white" stop-opacity="0.272734"/>
</linearGradient>
<linearGradient id="paint2_linear_26_4260" x1="76.6521" y1="41.385" x2="45.625" y2="59.5229" gradientUnits="userSpaceOnUse">
<stop stop-color="white" stop-opacity="0.200771"/>
<stop offset="1" stop-color="white" stop-opacity="0.697855"/>
</linearGradient>
</defs>
</svg>
